<svg width="97" height="30" viewBox="0 0 97 30" fill="none" xmlns="http://www.w3.org/2000/svg">
<path d="M17.8047 21.2884L19.9397 8.81943H23.3546L21.2181 21.2884H17.8047Z" fill="#0E4595"/>
<path d="M33.5556 9.08833C32.8792 8.83572 31.819 8.56464 30.495 8.56464C27.1206 8.56464 24.7438 10.2558 24.7235 12.6795C24.7045 14.4712 26.4204 15.4707 27.7158 16.0671C29.045 16.6784 29.4919 17.0681 29.4855 17.6138C29.477 18.4497 28.424 18.8314 27.4424 18.8314C26.0756 18.8314 25.3495 18.6424 24.228 18.177L23.7878 17.9788L23.3086 20.7701C24.1062 21.1182 25.5811 21.4197 27.1126 21.4353C30.7024 21.4353 33.0328 19.7635 33.0593 17.1752C33.072 15.7567 32.1622 14.6774 30.192 13.7874C28.9984 13.2106 28.2674 12.8257 28.2751 12.2416C28.2751 11.7234 28.8939 11.1692 30.2309 11.1692C31.3475 11.1519 32.1565 11.3943 32.7868 11.6469L33.0928 11.7908L33.5556 9.08833Z" fill="#0E4595"/>
<path d="M42.3443 8.81934H39.7055C38.8881 8.81934 38.2763 9.04137 37.9173 9.85335L32.8457 21.2802H36.4317C36.4317 21.2802 37.0179 19.7439 37.1505 19.4065C37.5424 19.4065 41.0261 19.4118 41.524 19.4118C41.6262 19.8484 41.9395 21.2802 41.9395 21.2802H45.1083L42.3443 8.81934ZM38.1576 16.8708C38.4401 16.1524 39.5182 13.3852 39.5182 13.3852C39.4981 13.4184 39.7986 12.6633 39.9709 12.1951L40.2018 13.2702C40.2018 13.2702 40.8557 16.2465 40.9923 16.8706H38.1576V16.8708Z" fill="#0E4595"/>
<path d="M2.9362 8.8194L2.89258 9.07878C4.24253 9.404 5.44823 9.87471 6.50383 10.4603L9.53395 21.2684L13.1471 21.2644L18.5233 8.8194H14.9057L11.5625 17.3223L11.2063 15.5943C11.1896 15.5409 11.1715 15.4874 11.153 15.4338L9.9907 9.87209C9.78405 9.08254 9.18452 8.84691 8.44283 8.8194H2.9362Z" fill="#0E4595"/>
<g clip-path="url(#clip0_375_550)">
<path d="M65.065 29.9334V27.9401C65.065 27.1757 64.5962 26.6776 63.8268 26.6776C63.4226 26.6776 62.9902 26.8107 62.6887 27.2391C62.4543 26.8733 62.1229 26.6776 61.6178 26.6776C61.4299 26.6695 61.243 26.7078 61.0738 26.789C60.9045 26.8702 60.7582 26.9917 60.6478 27.1428V26.7417H60.0117V29.931H60.6478V28.1062C60.6478 27.5447 60.9825 27.276 61.4513 27.276C61.9201 27.276 62.1876 27.5752 62.1876 28.1062V29.9334H62.8237V28.1062C62.8237 27.5447 63.1583 27.276 63.6271 27.276C64.0959 27.276 64.3635 27.5752 64.3635 28.1062V29.9334H65.065ZM75.5096 26.777H74.3376V25.8145H73.7031V26.777H73.0338V27.3385H73.7031V28.8369C73.7031 29.5677 73.9706 30 74.774 30C75.0784 29.9937 75.3766 29.9139 75.6429 29.7674L75.4417 29.2059C75.2611 29.3179 75.0516 29.3756 74.8387 29.3719C74.5041 29.3719 74.3367 29.1722 74.3367 28.8401V27.3128H75.5087V26.781L75.5096 26.777ZM81.4681 26.6776C81.2949 26.6737 81.1236 26.7146 80.971 26.7961C80.8184 26.8777 80.6898 26.9971 80.5976 27.1428V26.7417H79.9615V29.931H80.5976V28.1399C80.5976 27.608 80.8652 27.276 81.3008 27.276C81.4478 27.2819 81.5937 27.3042 81.7357 27.3425L81.9369 26.7441C81.7835 26.7057 81.6263 26.6834 81.4681 26.6776ZM72.4632 27.0096C72.1285 26.777 71.6597 26.6776 71.1578 26.6776C70.3544 26.6776 69.8524 27.0433 69.8524 27.6746C69.8524 28.2064 70.221 28.5048 70.9234 28.6051L71.258 28.638C71.6266 28.7046 71.861 28.8377 71.861 29.0038C71.861 29.2364 71.5935 29.4048 71.0907 29.4048C70.7068 29.4127 70.3309 29.2961 70.0198 29.0727L69.6851 29.5709C70.1539 29.903 70.723 29.9719 71.0592 29.9719C71.9968 29.9719 72.4987 29.5404 72.4987 28.942C72.4987 28.3805 72.0946 28.1118 71.3938 28.0115L71.0592 27.9786C70.7577 27.9457 70.4934 27.8455 70.4934 27.6465C70.4934 27.4139 70.7609 27.2455 71.1295 27.2455C71.5337 27.2455 71.9329 27.4115 72.1342 27.511L72.4632 27.0096ZM82.1713 28.3388C82.1713 29.3014 82.8075 30 83.8453 30C84.3141 30 84.6487 29.9006 84.9833 29.6342L84.6487 29.1361C84.4118 29.3265 84.117 29.432 83.8121 29.4353C83.2463 29.4353 82.8075 29.0038 82.8075 28.3725C82.8075 27.7412 83.2407 27.3128 83.8121 27.3128C84.117 27.3162 84.4118 27.4216 84.6487 27.612L84.9833 27.1139C84.6487 26.8484 84.3141 26.7481 83.8453 26.7481C82.8406 26.6816 82.1713 27.3794 82.1713 28.3428V28.3388ZM77.6854 26.6776C76.7478 26.6776 76.1117 27.3417 76.1117 28.3388C76.1117 29.3358 76.781 30 77.7517 30C78.224 30.0099 78.6851 29.8574 79.0571 29.5685L78.7224 29.1032C78.4535 29.3101 78.125 29.4264 77.7848 29.4353C77.35 29.4353 76.8812 29.1698 76.8149 28.6051H79.192V28.3396C79.192 27.3425 78.5891 26.6784 77.6854 26.6784V26.6776ZM77.6523 27.276C78.1211 27.276 78.4557 27.5752 78.4888 28.0733H76.7486C76.8489 27.608 77.1528 27.276 77.6523 27.276ZM68.9819 28.3388V26.7441H68.3458V27.1452C68.1114 26.846 67.78 26.68 67.308 26.68C66.4044 26.68 65.7343 27.3778 65.7343 28.3412C65.7343 29.3046 66.4035 30.0024 67.308 30.0024C67.7768 30.0024 68.1114 29.8364 68.3458 29.5372V29.9383H68.9819V28.3388ZM66.4044 28.3388C66.4044 27.7404 66.7729 27.276 67.409 27.276C68.012 27.276 68.379 27.7412 68.379 28.3388C68.379 28.9701 67.9748 29.4016 67.409 29.4016C66.7729 29.4345 66.4044 28.9364 66.4044 28.3388ZM91.144 26.6776C90.9707 26.6737 90.7994 26.7146 90.6468 26.7961C90.4943 26.8777 90.3656 26.9971 90.2735 27.1428V26.7417H89.6374V29.931H90.2727V28.1399C90.2727 27.608 90.5402 27.276 90.9759 27.276C91.1229 27.2819 91.2687 27.3042 91.4107 27.3425L91.612 26.7441C91.4585 26.7057 91.3014 26.6834 91.1432 26.6776H91.144ZM88.6666 28.3388V26.7441H88.0305V27.1452C87.7961 26.846 87.4647 26.68 86.9927 26.68C86.089 26.68 85.419 27.3778 85.419 28.3412C85.419 29.3046 86.0882 30.0024 86.9927 30.0024C87.4615 30.0024 87.7961 29.8364 88.0305 29.5372V29.9383H88.6666V28.3388ZM86.089 28.3388C86.089 27.7404 86.4576 27.276 87.0937 27.276C87.6967 27.276 88.0637 27.7412 88.0637 28.3388C88.0637 28.9701 87.6595 29.4016 87.0937 29.4016C86.4576 29.4345 86.089 28.9364 86.089 28.3388ZM95.128 28.3388V25.4816H94.4919V27.1428C94.2575 26.8436 93.9261 26.6776 93.454 26.6776C92.5504 26.6776 91.8803 27.3754 91.8803 28.3388C91.8803 29.3022 92.5496 30 93.454 30C93.9228 30 94.2575 29.834 94.4919 29.5348V29.9358H95.128V28.3388ZM92.5504 28.3388C92.5504 27.7404 92.9189 27.276 93.5551 27.276C94.158 27.276 94.525 27.7412 94.525 28.3388C94.525 28.9701 94.1209 29.4016 93.5551 29.4016C92.9181 29.4353 92.5496 28.9372 92.5496 28.3388H92.5504Z" fill="black"/>
<path d="M83.3431 2.55801H71.7266V21.3618H83.3431V2.55801Z" fill="#FF5F00"/>
<path d="M72.8983 11.9599C72.8987 10.151 73.3114 8.36556 74.1056 6.73738C74.8999 5.10919 76.0549 3.68041 77.4844 2.55803C75.7067 1.1709 73.5715 0.308163 71.323 0.0684345C69.0746 -0.171294 66.8035 0.221662 64.7694 1.20238C62.7353 2.1831 61.0203 3.71201 59.8205 5.61434C58.6207 7.51666 57.9844 9.71564 57.9844 11.9599C57.9844 14.2042 58.6207 16.4031 59.8205 18.3055C61.0203 20.2078 62.7353 21.7367 64.7694 22.7174C66.8035 23.6981 69.0746 24.0911 71.323 23.8514C73.5715 23.6116 75.7067 22.7489 77.4844 21.3618C76.0549 20.2394 74.8999 18.8106 74.1056 17.1824C73.3114 15.5542 72.8987 13.7688 72.8983 11.9599Z" fill="#EB001B"/>
<path d="M97.0009 11.9599C97.0025 14.2025 96.3681 16.4003 95.1702 18.302C93.9724 20.2036 92.2594 21.7322 90.2272 22.7131C88.195 23.6939 85.9257 24.0874 83.6788 23.8484C81.4319 23.6094 79.2981 22.7477 77.5215 21.3618C78.9513 20.2397 80.1066 18.811 80.9009 17.1827C81.6952 15.5545 82.1078 13.7689 82.1078 11.9599C82.1078 10.1509 81.6952 8.36535 80.9009 6.7371C80.1066 5.10885 78.9513 3.68013 77.5215 2.55804C79.2981 1.17211 81.4319 0.310387 83.6788 0.0714185C85.9257 -0.16755 88.195 0.225889 90.2272 1.20674C92.2594 2.18758 93.9724 3.71624 95.1702 5.61786C96.3681 7.51948 97.0025 9.71729 97.0009 11.9599Z" fill="#F79E1B"/>
</g>
<defs>
<clipPath id="clip0_375_550">
<rect width="39" height="30" fill="white" transform="translate(58)"/>
</clipPath>
</defs>
</svg>
