<svg width="30" height="30" viewBox="0 0 30 30" fill="none" xmlns="http://www.w3.org/2000/svg">
<circle cx="15" cy="15" r="15" fill="#268BE8"/>
<g clip-path="url(#clip0_143_433)">
<path d="M19.327 16.7366C19.0046 16.7366 18.7441 16.9971 18.7441 17.3195V19.1505C18.7441 19.4723 18.4829 19.7335 18.1612 19.7335H11.7488C11.427 19.7335 11.1659 19.4723 11.1659 19.1505V11.5723C11.1659 11.2505 11.427 10.9894 11.7488 10.9894H15.1357C15.458 10.9894 15.7186 10.7288 15.7186 10.4065C15.7186 10.0841 15.458 9.82355 15.1357 9.82355H11.7488C10.7846 9.8235 10 10.6082 10 11.5723V19.1505C10 20.1147 10.7846 20.8993 11.7488 20.8993H18.1611C19.1253 20.8993 19.9099 20.1153 19.9099 19.1505V17.3195C19.91 16.9971 19.6494 16.7366 19.327 16.7366Z" fill="white"/>
<path d="M21.3478 9.74945C20.9246 9.32624 20.3719 9.11287 19.8152 9.10123C19.2294 9.08841 18.64 9.30058 18.197 9.7442L14.2505 13.6907C13.6745 14.269 13.3574 15.0361 13.3574 15.8511V17.1568C13.3574 17.4792 13.618 17.7398 13.9403 17.7398H15.2461C16.0611 17.7398 16.8282 17.4226 17.4071 16.8461L21.3483 12.9049C22.2169 12.0357 22.2169 10.6192 21.3478 9.74945ZM16.5834 16.0213C16.2261 16.3775 15.7504 16.5739 15.2462 16.5739H14.5233V15.8511C14.5233 15.3468 14.7197 14.8712 15.0753 14.5144L17.677 11.9127L19.1845 13.4202L16.5834 16.0213ZM20.5235 12.0812L20.0087 12.596L18.5013 11.0885L19.016 10.5738C19.4322 10.1575 20.1084 10.1587 20.5235 10.5738C20.9385 10.9894 20.9385 11.6656 20.5235 12.0812Z" fill="white"/>
</g>
<defs>
<clipPath id="clip0_143_433">
<rect width="12" height="12" fill="white" transform="translate(10 9)"/>
</clipPath>
</defs>
</svg>
