<svg width="118" height="30" viewBox="0 0 118 30" fill="none" xmlns="http://www.w3.org/2000/svg">
<path d="M91.2161 7.82611H84.8478C84.4732 7.82611 84.0986 8.19878 83.9113 8.57145L81.2891 24.969C81.2891 25.3416 81.4764 25.528 81.851 25.528H85.2224C85.597 25.528 85.7843 25.3416 85.7843 24.969L86.5335 20.3106C86.5335 19.9379 86.9081 19.5652 87.47 19.5652H89.5303C93.8383 19.5652 96.2732 17.5156 96.8351 13.4162C97.2097 11.7392 96.8351 10.2485 96.0859 9.3168C94.9621 8.38512 93.2764 7.82611 91.2161 7.82611ZM91.9653 13.9752C91.5907 16.2112 89.9049 16.2112 88.2192 16.2112H87.0954L87.8446 11.9255C87.8446 11.7392 88.0319 11.5528 88.4065 11.5528H88.7811C89.9049 11.5528 91.0288 11.5528 91.5907 12.2982C91.9653 12.4845 91.9653 13.0435 91.9653 13.9752Z" fill="#139AD6"/>
<path d="M45.3274 7.82611H38.9591C38.5845 7.82611 38.2099 8.19878 38.0226 8.57145L35.4004 24.969C35.4004 25.3416 35.5877 25.528 35.9623 25.528H38.9591C39.3337 25.528 39.7083 25.1553 39.8956 24.7826L40.6448 20.3106C40.6448 19.9379 41.0194 19.5652 41.5814 19.5652H43.6417C47.9496 19.5652 50.3845 17.5156 50.9464 13.4162C51.3211 11.7392 50.9464 10.2485 50.1972 9.3168C49.0734 8.38512 47.575 7.82611 45.3274 7.82611ZM46.0766 13.9752C45.702 16.2112 44.0163 16.2112 42.3306 16.2112H41.3941L42.1433 11.9255C42.1433 11.7392 42.3306 11.5528 42.7052 11.5528H43.0798C44.2036 11.5528 45.3274 11.5528 45.8893 12.2982C46.0766 12.4845 46.2639 13.0435 46.0766 13.9752Z" fill="#263B80"/>
<path d="M64.6197 13.7889H61.6228C61.4355 13.7889 61.0609 13.9752 61.0609 14.1615L60.8736 15.0932L60.6863 14.7205C59.9371 13.7889 58.626 13.4162 57.1276 13.4162C53.7562 13.4162 50.7593 16.0249 50.1974 19.5653C49.8228 21.4286 50.3847 23.1056 51.3212 24.2237C52.2577 25.3417 53.5689 25.7143 55.2546 25.7143C58.0641 25.7143 59.5625 24.0373 59.5625 24.0373L59.3752 24.969C59.3752 25.3417 59.5625 25.528 59.9371 25.528H62.7466C63.1212 25.528 63.4959 25.1553 63.6832 24.7827L65.3689 14.3479C65.1816 14.1615 64.807 13.7889 64.6197 13.7889ZM60.3117 19.7516C59.9371 21.4286 58.626 22.733 56.753 22.733C55.8165 22.733 55.0673 22.3603 54.6927 21.9876C54.3181 21.4286 54.1308 20.6833 54.1308 19.7516C54.3181 18.0746 55.8165 16.7702 57.5022 16.7702C58.4387 16.7702 59.0006 17.1429 59.5625 17.5156C60.1244 18.0746 60.3117 19.0063 60.3117 19.7516Z" fill="#263B80"/>
<path d="M110.321 13.7888H107.324C107.137 13.7888 106.762 13.9751 106.762 14.1615L106.575 15.0932L106.387 14.7205C105.638 13.7888 104.327 13.4161 102.829 13.4161C99.4573 13.4161 96.4605 16.0248 95.8986 19.5652C95.524 21.4286 96.0859 23.1056 97.0224 24.2236C97.9589 25.3416 99.27 25.7143 100.956 25.7143C103.765 25.7143 105.264 24.0373 105.264 24.0373L105.076 24.9689C105.076 25.3416 105.264 25.5279 105.638 25.5279H108.448C108.822 25.5279 109.197 25.1553 109.384 24.7826L111.07 14.3478C110.883 14.1615 110.695 13.7888 110.321 13.7888ZM106.013 19.7515C105.638 21.4286 104.327 22.7329 102.454 22.7329C101.518 22.7329 100.768 22.3602 100.394 21.9876C100.019 21.4286 99.8319 20.6832 99.8319 19.7515C100.019 18.0745 101.518 16.7702 103.203 16.7702C104.14 16.7702 104.702 17.1428 105.264 17.5155C106.013 18.0745 106.2 19.0062 106.013 19.7515Z" fill="#139AD6"/>
<path d="M80.9144 13.7888H77.7303C77.3557 13.7888 77.1684 13.9752 76.9811 14.1615L72.8605 20.4969L70.9874 14.5342C70.8001 14.1615 70.6128 13.9752 70.0509 13.9752H67.0541C66.6795 13.9752 66.4922 14.3478 66.4922 14.7205L69.8636 24.5963L66.6795 29.0683C66.4922 29.441 66.6795 30 67.0541 30H70.0509C70.4255 30 70.6128 29.8137 70.8001 29.6273L81.1017 14.9068C81.6636 14.3478 81.289 13.7888 80.9144 13.7888Z" fill="#263B80"/>
<path d="M113.88 8.3851L111.258 25.1553C111.258 25.528 111.445 25.7143 111.82 25.7143H114.442C114.817 25.7143 115.191 25.3416 115.378 24.969L118.001 8.57144C118.001 8.19877 117.813 8.01243 117.439 8.01243H114.442C114.255 7.8261 114.067 8.01243 113.88 8.3851Z" fill="#139AD6"/>
<path d="M21.5397 2.23602C20.2286 0.745339 17.7937 0 14.4222 0H5.05715C4.49525 0 3.93334 0.559003 3.74604 1.11801L0 25.528C0 26.087 0.374604 26.4596 0.749208 26.4596H6.55557L8.05398 17.3292V17.7019C8.24128 17.1429 8.80319 16.5838 9.36509 16.5838H12.1746C17.6064 16.5838 21.727 14.3478 23.0381 8.19876C23.0381 8.01242 23.0381 7.82608 23.0381 7.63975C22.8508 7.63975 22.8508 7.63975 23.0381 7.63975C23.2254 5.21739 22.8508 3.72671 21.5397 2.23602Z" fill="#263B80"/>
<path d="M22.8513 7.63977C22.8513 7.82611 22.8513 8.01244 22.8513 8.19878C21.5402 14.5342 17.4196 16.5839 11.9878 16.5839H9.17827C8.61637 16.5839 8.05446 17.1429 7.86716 17.7019L5.99414 29.0683C5.99414 29.441 6.18144 29.8137 6.74335 29.8137H11.6132C12.1751 29.8137 12.737 29.441 12.737 28.882V28.6957L13.6735 22.9193V22.5466C13.6735 21.9876 14.2354 21.6149 14.7973 21.6149H15.5465C20.2291 21.6149 23.9751 19.7516 24.9116 14.1615C25.2862 11.9255 25.0989 9.8758 23.9751 8.57145C23.7878 8.19878 23.4132 7.82611 22.8513 7.63977Z" fill="#139AD6"/>
<path d="M21.5404 7.08073C21.3531 7.08073 21.1658 6.8944 20.9785 6.8944C20.7912 6.8944 20.6039 6.8944 20.4166 6.70806C19.6674 6.52173 18.9182 6.52173 17.9817 6.52173H10.6769C10.4896 6.52173 10.3023 6.52173 10.115 6.70806C9.7404 6.8944 9.5531 7.26707 9.5531 7.63974L8.05469 17.3292V17.7019C8.24199 17.1428 8.80389 16.5838 9.3658 16.5838H12.1753C17.6071 16.5838 21.7277 14.3478 23.0388 8.19875C23.0388 8.01241 23.0388 7.82607 23.2261 7.63974C22.8515 7.4534 22.6642 7.26707 22.2896 7.26707C21.7277 7.08073 21.7277 7.08073 21.5404 7.08073Z" fill="#232C65"/>
</svg>
