<svg width="50" height="50" viewBox="0 0 50 50" fill="none" xmlns="http://www.w3.org/2000/svg">
<path d="M47.5 0C48.88 0 50 1.14872 50 2.5641V38.4615C50 39.8769 48.88 41.0256 47.5 41.0256H11.1375L0 50V2.5641C0 1.14872 1.12 0 2.5 0H47.5ZM22.405 13.0769L21.2875 11.3128C16.82 13.3 13.75 17.3205 13.75 21.8077C13.75 24.359 14.4425 25.9333 15.73 27.3359C16.54 28.218 17.8225 28.8462 19.165 28.8462C21.58 28.8462 23.54 26.8359 23.54 24.359C23.54 22 21.7625 20.1 19.505 19.8846C19.105 19.8462 18.695 19.8538 18.3075 19.9103V19.6744C18.3225 18.5923 18.5375 15.4872 21.9425 13.3513L22.405 13.0769L21.2875 11.3128L22.405 13.0769ZM33.7875 11.3128C29.32 13.3 26.25 17.3205 26.25 21.8077C26.25 24.359 26.9425 25.9333 28.23 27.3359C29.04 28.218 30.3225 28.8462 31.665 28.8462C34.08 28.8462 36.04 26.8359 36.04 24.359C36.04 22 34.2625 20.1 32.005 19.8846C31.605 19.8462 31.195 19.8538 30.8075 19.9103C30.8075 19.1077 30.735 15.3923 34.905 13.0769L33.7875 11.3128Z" fill="#DDDDDD"/>
</svg>
