<svg width="20" height="20" viewBox="0 0 20 20" fill="none" xmlns="http://www.w3.org/2000/svg">
<path d="M18.8089 8.21633L2.6724 1.52062C1.99259 1.23851 1.22459 1.36262 0.668141 1.84434C0.111696 2.32613 -0.121038 3.06848 0.0608368 3.78164L1.49713 9.41414H8.52939C8.85299 9.41414 9.11537 9.67648 9.11537 10.0001C9.11537 10.3237 8.85302 10.5861 8.52939 10.5861H1.49713L0.0608368 16.2186C-0.121038 16.9318 0.111657 17.6741 0.668141 18.1559C1.22572 18.6386 1.99381 18.7611 2.67244 18.4796L18.8089 11.7839C19.5436 11.4791 20 10.7955 20 10.0001C20 9.20469 19.5436 8.52113 18.8089 8.21633Z" fill="white"/>
</svg>
